<?xml version="1.0" standalone="no"?>
<!DOCTYPE svg PUBLIC "-//W3C//DTD SVG 20010904//EN"
 "http://www.w3.org/TR/2001/REC-SVG-20010904/DTD/svg10.dtd">
<svg version="1.0" xmlns="http://www.w3.org/2000/svg"
 width="2307.000000pt" height="480.000000pt" viewBox="0 0 2307.000000 480.000000"
 preserveAspectRatio="xMidYMid meet">

<g transform="translate(0.000000,480.000000) scale(0.100000,-0.100000)"
fill="#000000" stroke="none">
<path d="M156 4704 c-11 -28 -7 -32 48 -57 81 -37 131 -93 155 -172 21 -66 21
-83 21 -1390 l0 -1322 37 -74 c27 -55 58 -95 119 -156 106 -104 169 -147 269
-180 78 -25 90 -26 410 -33 235 -5 341 -11 368 -20 29 -11 48 -28 80 -77 42
-64 52 -73 59 -51 3 7 13 -2 23 -20 11 -18 23 -31 26 -30 4 2 27 31 52 64 49
67 93 104 147 124 25 10 131 15 380 19 340 6 346 6 405 31 137 58 231 145 302
283 l33 62 0 1305 c0 1389 0 1392 48 1474 22 38 94 88 169 116 56 21 57 21 82
2 14 -10 40 -45 56 -77 l30 -59 5 -1360 5 -1361 34 -65 c53 -100 209 -248 319
-303 l85 -42 361 -6 c380 -6 411 -9 448 -53 10 -12 32 -43 49 -69 20 -30 37
-46 46 -43 8 3 21 -7 32 -25 l19 -31 36 55 c48 72 114 132 162 148 26 8 154
14 384 19 200 4 358 11 375 17 158 56 261 147 327 289 l23 49 5 1345 c5 1276
6 1348 24 1400 21 65 66 111 154 161 l61 34 -45 48 -45 47 -3088 0 c-2807 0
-3089 -1 -3095 -16z m1759 -239 l-210 -205 -197 197 c-109 109 -198 201 -198
205 0 5 183 8 408 7 l407 0 -210 -204z m2105 17 c14 -20 27 -41 28 -45 6 -12
-50 -137 -60 -137 -14 0 -70 129 -62 143 17 27 57 77 63 77 3 0 17 -17 31 -38z
m828 -4 l29 -43 -26 -67 c-14 -38 -31 -68 -37 -68 -11 0 -64 110 -64 132 0 13
53 88 62 88 4 0 20 -19 36 -42z m825 1 c15 -21 27 -43 27 -48 0 -19 -53 -131
-62 -131 -14 0 -70 129 -62 143 17 28 57 77 63 77 3 -1 18 -19 34 -41z m-1790
-56 c6 -4 67 -129 67 -139 0 -20 -148 43 -154 65 -3 9 -8 33 -12 54 l-7 39 49
-7 c27 -4 52 -10 57 -12z m304 0 c-3 -10 -8 -35 -11 -55 -6 -34 -11 -38 -76
-64 -39 -15 -73 -25 -76 -21 -3 3 9 36 28 74 34 70 45 78 116 82 18 1 22 -3
19 -16z m518 1 c15 -6 70 -132 62 -140 -3 -4 -37 6 -75 21 l-69 27 -10 55 -10
55 45 -7 c24 -4 50 -9 57 -11z m300 -31 c-3 -27 -12 -53 -18 -59 -16 -15 -126
-58 -133 -52 -3 3 7 35 22 72 21 54 31 67 53 72 14 3 31 7 36 9 40 13 47 6 40
-42z m529 31 c13 -5 69 -135 61 -142 -8 -8 -145 50 -145 62 -1 6 -5 31 -9 54
l-9 44 45 -7 c25 -4 51 -9 57 -11z m306 11 c0 -2 -5 -26 -11 -54 -10 -49 -11
-50 -75 -75 -35 -14 -66 -26 -69 -26 -12 0 -2 39 23 90 22 44 33 56 57 61 38
8 75 10 75 4z m-5118 -34 c7 -10 24 -18 37 -17 19 1 26 -6 37 -43 7 -24 27
-58 44 -76 25 -26 30 -38 25 -56 l-8 -23 -26 30 c-36 43 -60 33 -26 -11 38
-51 29 -95 -20 -95 -18 0 -23 10 -34 61 -9 45 -15 59 -23 51 -9 -9 -8 -25 0
-63 14 -57 5 -79 -31 -79 -41 0 -55 25 -46 82 5 32 5 56 -1 62 -6 6 -10 8 -11
6 0 -3 -6 -30 -12 -60 -11 -49 -15 -55 -39 -58 -39 -5 -48 35 -18 83 29 48 16
59 -19 16 -24 -29 -29 -31 -34 -17 -11 28 -9 32 32 80 21 25 41 60 45 80 7 37
15 43 32 26 7 -7 18 -2 34 15 28 30 44 32 62 6z m2035 -1 c12 -14 20 -16 29
-9 19 15 31 4 38 -36 4 -19 25 -55 46 -81 22 -25 40 -49 40 -53 0 -12 -30 -36
-30 -25 -1 5 -10 20 -21 33 -31 38 -44 12 -14 -29 38 -51 29 -90 -21 -90 -18
0 -23 9 -34 59 -8 41 -16 58 -25 55 -10 -4 -10 -16 1 -62 12 -51 11 -58 -3
-69 -21 -16 -43 -16 -65 1 -15 11 -16 21 -9 67 6 38 5 56 -3 61 -13 8 -24 -15
-25 -54 -1 -42 -11 -58 -37 -58 -16 0 -28 8 -35 24 -10 20 -8 31 11 61 15 25
19 40 12 47 -7 7 -16 0 -28 -21 -10 -17 -23 -30 -29 -28 -22 8 -14 39 23 86
22 27 43 66 46 85 7 38 20 46 30 20 5 -14 10 -13 33 10 31 31 47 33 70 6z
m-1564 -188 l167 -167 -170 -170 -170 -170 0 338 c0 185 1 337 3 337 1 0 78
-75 170 -168z m1205 -341 l-3 -159 -160 153 -160 154 160 160 160 161 3 -154
c1 -85 1 -227 0 -315z m1862 370 c0 -5 -19 -21 -42 -36 l-41 -27 -56 22 c-31
13 -62 29 -70 36 -12 11 -11 15 10 23 13 5 44 18 69 29 l45 19 43 -29 c23 -16
42 -33 42 -37z m1658 3 c2 -1 -18 -17 -44 -34 l-46 -33 -57 23 c-31 13 -63 29
-70 36 -13 12 -11 15 15 24 16 6 47 19 69 29 l40 18 45 -30 c25 -17 46 -31 48
-33z m-2053 31 c31 -14 55 -30 53 -36 -2 -6 -32 -23 -66 -36 l-62 -25 -45 28
c-25 16 -45 32 -45 35 0 11 74 58 91 58 9 1 42 -10 74 -24z m838 -5 c26 -11
47 -25 47 -30 0 -4 -31 -20 -69 -35 l-69 -27 -47 32 -47 32 44 30 c48 32 65
32 141 -2z m347 4 c22 -15 40 -29 40 -33 0 -3 -21 -19 -46 -35 l-45 -29 -65
28 c-35 15 -64 31 -64 36 0 11 97 57 123 58 9 1 35 -11 57 -25z m466 1 c30
-14 54 -30 52 -36 -2 -6 -32 -23 -66 -36 l-62 -25 -45 28 c-25 16 -45 32 -45
35 0 11 74 58 92 58 10 1 43 -10 74 -24z m-1506 -9 c20 -25 8 -61 -22 -64 -36
-4 -53 26 -32 56 18 25 37 28 54 8z m824 1 c21 -16 18 -45 -6 -61 -38 -23 -78
35 -42 61 10 7 21 13 24 13 3 0 14 -6 24 -13z m824 4 c8 -5 12 -21 10 -37 -2
-23 -9 -30 -30 -32 -36 -4 -53 26 -32 56 16 23 31 27 52 13z m-1718 -81 c0
-17 -41 -115 -53 -127 -7 -6 -34 -15 -61 -19 l-49 -7 7 39 c12 68 15 72 79 98
70 28 77 30 77 16z m160 -15 c60 -24 67 -32 75 -87 8 -53 9 -52 -59 -41 -36 6
-40 10 -67 70 -28 62 -30 89 -5 80 6 -3 31 -13 56 -22z m665 4 c-22 -67 -56
-129 -72 -129 -10 0 -34 -3 -54 -6 l-36 -6 10 55 10 55 61 25 c78 32 89 33 81
6z m165 -4 c60 -24 67 -32 75 -87 8 -53 9 -53 -59 -41 -36 6 -41 10 -68 70
-27 61 -29 90 -4 80 6 -3 31 -13 56 -22z m660 11 c0 -17 -46 -123 -57 -129 -4
-3 -30 -8 -56 -12 l-48 -7 6 38 c12 68 15 72 78 98 73 30 77 30 77 12z m167
-12 c61 -26 62 -27 73 -77 6 -27 8 -52 6 -55 -3 -2 -27 0 -53 4 -46 9 -49 12
-75 64 -27 54 -35 90 -20 90 4 0 35 -12 69 -26z m-1729 -74 l20 -55 -33 -48
-32 -48 -32 50 -32 49 31 68 c35 78 44 77 78 -16z m800 63 c5 -10 17 -41 27
-69 l18 -50 -28 -42 c-15 -23 -31 -42 -35 -42 -4 0 -20 19 -35 42 -26 39 -27
44 -15 77 38 104 50 119 68 84z m845 -49 l26 -66 -33 -50 -33 -49 -32 50 -32
49 30 66 c16 36 34 66 39 66 5 0 20 -30 35 -66z m-3743 -499 l195 -195 -395 0
-395 0 195 195 c107 107 197 195 200 195 3 0 93 -88 200 -195z m4160 -825 c0
-988 0 -989 -22 -1047 -52 -140 -145 -233 -286 -285 -53 -20 -84 -22 -402 -28
-407 -8 -411 -9 -502 -102 -32 -32 -58 -63 -58 -69 0 -19 -17 -5 -57 46 -50
63 -120 102 -209 115 -38 5 -198 10 -356 10 -312 0 -353 6 -451 63 -61 36
-149 134 -186 208 l-31 62 0 1009 0 1008 1280 0 1280 0 0 -990z m-5365 920
c13 -15 22 -17 36 -9 16 8 21 5 29 -16 6 -15 10 -33 10 -41 0 -7 16 -31 35
-53 34 -37 45 -74 26 -86 -5 -3 -19 9 -31 26 -16 21 -26 27 -33 20 -7 -7 -1
-21 18 -46 23 -31 26 -40 16 -61 -7 -16 -19 -24 -35 -24 -26 0 -30 7 -42 73
-4 23 -12 37 -21 37 -11 0 -14 -7 -10 -22 4 -13 9 -42 13 -65 6 -39 4 -43 -20
-54 -22 -10 -29 -9 -47 7 -18 16 -20 28 -17 76 3 41 1 58 -8 58 -12 0 -24 -43
-24 -85 0 -15 -7 -25 -21 -28 -51 -14 -69 31 -32 83 26 39 28 50 10 50 -7 0
-21 -14 -31 -30 -9 -17 -22 -28 -27 -25 -19 13 -8 52 25 84 21 20 37 47 41 70
9 48 14 54 31 40 11 -9 20 -6 40 15 32 31 45 32 69 6z m2030 0 c12 -13 25 -18
40 -14 20 5 23 1 30 -32 4 -22 21 -55 41 -76 33 -37 43 -71 25 -83 -5 -3 -19
9 -31 26 -16 21 -26 27 -33 20 -7 -7 -1 -21 18 -46 23 -31 26 -40 16 -61 -7
-16 -19 -24 -35 -24 -20 0 -27 7 -35 38 -6 20 -11 45 -11 55 0 9 -7 17 -16 17
-12 0 -15 -6 -11 -22 4 -13 9 -42 13 -65 5 -36 3 -43 -16 -53 -18 -10 -28 -9
-47 1 -23 12 -24 17 -19 61 4 27 9 55 12 63 4 9 0 15 -9 15 -17 0 -27 -21 -27
-55 0 -39 -11 -55 -36 -55 -39 0 -51 39 -25 81 24 40 26 49 8 49 -7 0 -21 -14
-31 -30 -9 -17 -22 -28 -27 -25 -18 12 -8 52 21 80 16 15 34 44 41 64 6 20 12
42 15 50 3 10 7 11 18 2 11 -9 20 -6 41 14 34 30 46 31 70 5z m-1055 -1020 l0
-680 -254 0 c-277 0 -315 6 -369 57 -56 54 -57 72 -57 715 l0 588 340 0 340 0
0 -680z m700 67 l0 -613 -22 -44 c-17 -32 -35 -50 -68 -67 -43 -22 -55 -22
-302 -23 l-258 0 0 680 0 680 325 0 325 0 0 -613z m-1674 259 c10 -8 29 -12
40 -10 18 5 23 0 29 -33 4 -21 22 -57 41 -80 19 -23 34 -48 34 -57 0 -28 -19
-27 -41 4 -15 19 -26 27 -32 21 -7 -7 0 -23 18 -46 23 -31 26 -40 16 -61 -7
-16 -19 -24 -35 -24 -20 0 -27 7 -35 38 -6 20 -11 45 -11 55 0 9 -7 17 -15 17
-13 0 -14 -7 -8 -37 18 -93 0 -129 -52 -105 -26 12 -26 14 -20 77 5 41 4 65
-3 65 -11 0 -22 -33 -22 -70 0 -51 -52 -69 -71 -26 -9 20 -7 30 15 62 18 27
23 41 15 49 -7 7 -13 5 -19 -5 -5 -8 -16 -24 -24 -35 -14 -17 -17 -18 -26 -5
-14 21 -14 22 24 71 19 24 39 63 46 87 9 37 13 42 26 31 12 -10 19 -8 37 9 25
26 46 28 73 8z m2034 -1 c7 -9 21 -13 35 -9 20 5 23 1 30 -33 4 -23 22 -54 46
-80 42 -46 44 -50 29 -73 -8 -13 -14 -10 -33 14 -34 42 -55 25 -22 -18 14 -18
25 -39 25 -47 0 -22 -21 -39 -46 -39 -19 0 -24 8 -34 55 -8 37 -16 55 -26 55
-10 0 -13 -6 -10 -17 22 -74 24 -107 8 -120 -9 -7 -24 -13 -33 -13 -21 0 -51
33 -45 51 2 8 7 33 10 57 5 33 3 42 -8 42 -10 0 -17 -14 -21 -37 -4 -21 -10
-48 -15 -60 -13 -31 -47 -30 -62 2 -9 21 -7 30 15 64 18 27 23 42 16 47 -7 4
-15 1 -20 -7 -4 -8 -15 -23 -23 -34 -14 -17 -17 -18 -26 -5 -15 22 -13 27 24
68 19 20 39 56 45 80 12 41 24 52 36 32 4 -7 16 -1 30 15 27 28 56 32 75 10z
m-2038 -694 c10 -14 18 -17 28 -10 24 14 27 11 35 -28 4 -21 24 -59 45 -86 22
-27 36 -55 33 -63 -8 -21 -19 -17 -41 13 -11 16 -24 23 -31 19 -9 -6 -5 -17
13 -41 33 -43 33 -60 0 -82 -25 -16 -27 -16 -39 1 -7 9 -16 37 -20 61 -4 31
-11 45 -22 45 -11 0 -14 -6 -9 -22 24 -90 16 -128 -29 -128 -37 0 -47 21 -37
84 7 43 6 56 -4 56 -7 0 -16 -21 -21 -52 -8 -50 -10 -53 -37 -53 -43 0 -51 33
-19 80 16 24 22 40 15 47 -6 6 -17 -3 -32 -26 -12 -20 -26 -34 -31 -30 -18 11
-8 47 26 88 19 24 38 57 41 75 7 35 21 48 36 33 6 -6 18 -1 33 14 29 29 49 30
67 5z m2035 -1 c12 -14 20 -16 29 -9 18 15 31 4 39 -34 4 -17 25 -51 46 -74
42 -46 45 -53 27 -71 -9 -9 -16 -4 -33 18 -13 17 -26 26 -33 21 -9 -5 -5 -17
13 -41 37 -51 29 -90 -20 -90 -18 0 -24 9 -34 55 -7 32 -18 55 -25 55 -11 0
-11 -11 -1 -61 12 -59 12 -60 -11 -76 -22 -14 -26 -14 -49 1 -18 12 -24 23
-20 39 10 48 10 90 -2 94 -7 3 -14 -11 -18 -34 -13 -80 -14 -83 -40 -83 -15 0
-29 8 -36 21 -9 18 -7 29 11 60 29 52 15 71 -17 24 -19 -29 -27 -34 -34 -24
-15 24 -10 38 25 77 19 20 39 56 45 80 12 41 24 52 36 32 4 -7 17 -1 32 15 31
30 48 32 70 5z m-539 -476 c16 6 21 0 30 -37 6 -24 21 -52 33 -63 34 -31 52
-73 38 -90 -9 -12 -15 -9 -32 14 -11 15 -22 29 -24 31 -2 3 -8 0 -13 -5 -7 -7
-1 -22 15 -44 38 -51 29 -90 -21 -90 -18 0 -23 9 -33 60 -8 42 -16 58 -25 54
-11 -4 -11 -15 0 -62 12 -51 12 -58 -3 -69 -23 -18 -47 -16 -65 5 -13 13 -14
28 -8 67 5 34 4 52 -4 57 -13 8 -24 -15 -25 -54 -1 -42 -11 -58 -37 -58 -16 0
-28 8 -35 24 -9 20 -7 30 14 62 34 49 22 67 -14 23 -23 -27 -31 -31 -38 -20
-13 19 -4 40 34 81 18 19 36 51 40 70 10 47 14 53 31 39 11 -9 20 -5 45 15
l32 27 22 -21 c15 -14 30 -20 43 -16z m-913 12 c13 -10 25 -11 37 -5 14 8 19
2 29 -33 6 -24 27 -62 46 -86 24 -29 32 -48 28 -62 -9 -27 -16 -25 -42 12 -18
26 -23 29 -29 15 -3 -10 3 -27 15 -43 34 -43 22 -84 -25 -84 -17 0 -23 8 -28
38 -11 57 -16 72 -28 72 -10 0 -6 -48 8 -105 4 -15 -2 -25 -20 -34 -22 -12
-29 -12 -51 3 -18 12 -24 23 -21 39 16 77 17 97 3 97 -16 0 -27 -29 -27 -72 0
-30 -28 -52 -53 -42 -27 10 -28 47 -2 86 16 25 21 39 14 44 -6 4 -14 2 -18 -3
-29 -43 -41 -54 -50 -48 -19 11 -12 32 28 80 24 29 42 63 46 87 4 21 11 38 16
38 5 0 9 -4 9 -10 0 -16 18 -12 40 10 24 24 49 25 75 6z"/>
<path d="M4135 3450 c-4 -7 6 -25 24 -44 l31 -32 -19 -34 c-49 -89 -71 -139
-71 -157 0 -10 13 -32 29 -47 24 -23 37 -27 82 -27 173 2 201 -7 216 -69 9
-34 60 -96 98 -119 26 -15 34 -27 39 -63 7 -45 3 -60 -35 -128 -18 -32 -18
-35 -1 -44 9 -5 21 -15 25 -23 11 -18 62 -16 92 3 19 12 23 22 19 40 -8 30 14
32 46 4 25 -22 61 -26 91 -10 21 12 25 52 10 92 -4 13 -11 51 -15 86 l-7 64
73 -5 c40 -3 86 -8 101 -12 20 -5 43 0 86 19 89 40 100 39 128 -14 32 -60 24
-112 -23 -156 -34 -32 -44 -54 -23 -54 7 0 17 -7 23 -16 7 -8 32 -18 56 -21
25 -3 56 -14 69 -24 24 -19 77 -25 96 -11 6 4 18 19 28 34 14 23 15 35 7 73
-6 25 -7 70 -4 100 5 41 2 67 -11 101 -24 63 -15 113 31 182 34 50 39 66 42
129 4 66 2 74 -24 108 -16 20 -42 44 -59 52 -46 25 -219 29 -343 8 -90 -15
-129 -15 -364 -5 -145 6 -310 13 -368 15 -58 2 -119 7 -136 10 -20 5 -34 3
-39 -5z m546 -673 c-13 -13 -15 31 -3 60 5 14 8 10 10 -16 2 -18 -1 -38 -7
-44z"/>
<path d="M4136 2473 c-5 -13 2 -26 24 -46 33 -30 32 -40 -11 -96 -11 -13 -19
-32 -19 -41 0 -10 -7 -23 -15 -30 -25 -21 -18 -66 16 -98 29 -27 34 -28 141
-30 121 -1 141 -10 153 -61 6 -29 85 -120 119 -138 29 -16 29 -119 -1 -157
-26 -33 -30 -66 -8 -66 8 0 15 -7 15 -15 0 -11 12 -15 44 -15 47 0 73 20 68
51 -5 27 13 31 40 9 39 -30 71 -34 98 -12 23 19 24 20 11 88 -7 38 -14 87 -15
109 l-1 40 66 3 c50 2 69 -1 79 -13 18 -22 40 -19 112 15 87 41 100 40 127
-15 31 -62 22 -113 -26 -159 -35 -33 -38 -56 -7 -56 8 0 13 -4 9 -10 -6 -10
69 -34 88 -27 6 2 21 -5 32 -15 66 -62 161 2 135 92 -6 19 -7 63 -4 96 5 47 2
73 -11 108 -23 61 -16 102 35 185 36 61 40 74 40 134 0 63 -2 69 -36 106 -19
22 -51 45 -71 52 -39 12 -291 7 -398 -10 -35 -5 -102 -5 -160 0 -85 7 -370 19
-565 23 -30 1 -65 5 -76 9 -16 6 -23 3 -28 -10z m545 -670 c-9 -16 -10 -15
-11 7 0 14 4 36 8 50 7 24 7 24 10 -7 2 -18 -1 -41 -7 -50z"/>
<path d="M1101 3136 l-53 -9 7 -61 c4 -34 9 -88 10 -121 2 -33 8 -80 15 -104
6 -24 9 -59 5 -78 -5 -29 -3 -33 15 -33 11 0 20 -4 20 -10 0 -6 38 -10 95 -10
l95 0 -6 28 c-3 15 0 47 6 72 7 25 14 61 16 80 8 62 25 175 31 194 4 14 1 18
-11 13 -11 -5 -16 -1 -16 12 0 15 -11 20 -57 26 -83 12 -111 12 -172 1z"/>
<path d="M1420 3135 l-55 -10 12 -95 c6 -52 9 -105 6 -117 -2 -11 1 -32 8 -44
7 -13 12 -50 12 -81 -1 -50 2 -58 18 -58 10 0 19 -4 19 -10 0 -6 37 -10 90
-10 l90 0 0 33 c0 17 5 50 11 72 6 22 12 63 14 90 2 28 8 74 14 104 15 76 14
94 -5 87 -11 -4 -14 -1 -9 13 5 17 -2 20 -57 26 -90 11 -107 11 -168 0z"/>
<path d="M1261 2606 l-53 -9 7 -71 c5 -39 9 -96 11 -126 1 -30 7 -74 13 -98 6
-23 8 -54 5 -68 -5 -20 -2 -26 15 -31 11 -3 21 -9 21 -14 0 -5 42 -9 93 -9
l94 0 -4 28 c-3 15 1 47 7 72 7 25 13 61 14 80 2 19 9 73 16 119 11 66 11 86
2 89 -7 2 -12 10 -12 17 0 23 -143 36 -229 21z"/>
<path d="M2057 3290 c-16 -5 -35 -14 -43 -21 -8 -6 -32 -12 -53 -13 -48 -3
-67 -17 -75 -57 -3 -16 -19 -41 -35 -55 -34 -29 -46 -69 -31 -108 8 -21 7 -32
-5 -49 -21 -30 -19 -70 5 -100 11 -14 20 -40 20 -61 0 -28 7 -40 34 -61 19
-15 36 -38 39 -54 4 -17 15 -32 26 -36 10 -3 22 -12 25 -20 3 -9 18 -15 37
-15 l31 0 -7 -97 c-10 -150 -39 -193 -182 -274 -24 -13 -43 -27 -43 -30 0 -3
10 -18 23 -33 23 -26 24 -26 65 -12 23 8 42 13 42 11 0 -2 -9 -20 -21 -40 -23
-39 -19 -76 5 -56 12 10 13 9 9 -7 -11 -45 20 -27 94 53 l78 84 47 -46 c30
-30 52 -44 62 -40 13 5 14 12 6 33 -9 23 -8 25 7 19 87 -35 124 -44 129 -30 6
15 -36 60 -119 130 -63 53 -76 91 -77 231 l0 111 30 -5 c37 -5 70 20 70 55 0
17 6 23 23 23 36 0 59 32 55 76 -2 29 2 44 20 61 26 27 30 87 6 121 -13 18
-13 28 -3 56 15 42 7 72 -31 115 -16 18 -30 39 -30 45 0 6 -14 27 -30 45 -26
28 -36 32 -62 27 -20 -4 -37 -1 -47 8 -22 19 -61 25 -94 16z"/>
<path d="M12937 3469 c-50 -12 -87 -32 -114 -61 -55 -59 -69 -168 -32 -245 25
-53 68 -88 202 -169 121 -73 158 -114 164 -181 7 -85 -53 -143 -148 -143 -86
0 -185 77 -226 175 -12 29 -24 45 -35 45 -23 0 -22 -16 5 -160 20 -101 25
-115 43 -118 15 -2 23 4 27 19 7 24 16 24 127 -6 212 -57 395 87 350 276 -17
70 -75 127 -220 217 -148 91 -185 128 -185 187 0 80 73 126 164 103 61 -15
133 -87 157 -157 13 -35 24 -51 36 -51 22 0 22 6 6 157 -13 121 -25 146 -54
104 -18 -25 -37 -26 -90 -7 -56 19 -133 26 -177 15z"/>
<path d="M15124 3123 c-82 -196 -161 -375 -175 -398 -15 -23 -40 -47 -58 -54
-17 -8 -31 -20 -31 -27 0 -11 26 -14 130 -14 104 0 130 3 130 14 0 8 -12 17
-27 21 -63 15 -67 43 -22 151 l31 74 161 -2 160 -3 34 -78 c18 -44 33 -90 33
-103 0 -25 -4 -28 -52 -38 -16 -4 -28 -13 -28 -21 0 -13 25 -15 160 -15 132 0
160 2 160 14 0 8 -10 18 -22 22 -13 3 -30 13 -39 21 -9 7 -94 189 -190 403
-123 277 -178 390 -189 390 -12 0 -58 -100 -166 -357z m201 -9 c36 -86 65
-158 62 -160 -2 -3 -63 -3 -134 -2 l-129 3 65 158 c36 86 66 157 67 157 1 0
32 -70 69 -156z"/>
<path d="M19291 3469 c-133 -23 -244 -110 -304 -237 -31 -64 -32 -72 -32 -192
1 -152 20 -211 96 -295 146 -159 401 -178 583 -43 57 42 76 72 58 90 -7 7 -30
-4 -72 -36 -34 -25 -85 -53 -113 -61 -61 -18 -155 -19 -209 -3 -60 18 -130 86
-164 160 -27 60 -29 70 -29 198 0 127 2 139 28 196 53 114 131 167 247 167
116 0 207 -65 246 -174 13 -34 23 -49 36 -49 17 0 18 12 18 145 0 124 -2 145
-15 145 -9 0 -26 -12 -39 -26 l-23 -27 -69 21 c-86 26 -173 33 -243 21z"/>
<path d="M21645 3470 c-206 -34 -338 -182 -352 -395 -16 -246 113 -417 345
-457 132 -22 278 21 373 112 39 37 41 42 27 56 -15 15 -21 13 -71 -26 -77 -58
-141 -80 -230 -80 -128 0 -219 64 -269 189 -19 48 -23 74 -22 181 0 105 3 134
22 181 48 120 133 182 252 182 116 0 209 -65 248 -175 11 -33 22 -48 34 -48
16 0 18 13 18 145 0 120 -3 145 -14 145 -8 0 -21 -8 -28 -18 -23 -32 -36 -33
-100 -14 -78 24 -168 33 -233 22z"/>
<path d="M22426 3125 c-82 -196 -161 -375 -176 -399 -15 -24 -41 -48 -59 -55
-17 -8 -31 -20 -31 -27 0 -11 26 -14 130 -14 108 0 130 2 130 15 0 8 -12 18
-27 21 -63 15 -65 32 -22 144 l30 80 160 0 160 0 30 -67 c17 -38 33 -85 36
-105 6 -40 5 -40 -49 -52 -16 -4 -28 -13 -28 -21 0 -13 25 -15 160 -15 129 0
160 3 160 14 0 7 -13 19 -30 26 -16 7 -38 26 -49 44 -10 17 -92 196 -181 399
-116 261 -168 367 -179 367 -12 0 -58 -99 -165 -355z m202 -15 c34 -80 62
-148 62 -152 0 -5 -60 -8 -134 -8 l-134 0 67 159 c36 88 69 157 72 153 3 -4
33 -72 67 -152z"/>
<path d="M7610 3440 c0 -15 7 -20 26 -20 28 0 65 -16 76 -34 4 -6 8 -120 8
-252 0 -133 5 -266 10 -295 24 -127 92 -196 215 -219 126 -24 252 3 328 71 77
67 81 83 87 412 6 324 2 311 82 324 23 3 38 11 38 19 0 11 -30 14 -150 14
-143 0 -150 -1 -150 -20 0 -16 7 -20 34 -20 19 0 44 -9 57 -19 24 -19 24 -22
27 -242 4 -316 -12 -395 -91 -447 -37 -25 -49 -27 -138 -27 -115 0 -139 12
-179 91 -25 48 -25 53 -28 325 -3 277 -3 277 19 298 14 13 36 21 56 21 26 0
33 4 33 20 0 19 -7 20 -180 20 -173 0 -180 -1 -180 -20z"/>
<path d="M8570 3440 c0 -15 7 -20 29 -20 17 0 42 -11 60 -26 l31 -26 0 -334 0
-334 -22 -14 c-13 -8 -40 -18 -60 -21 -23 -4 -38 -13 -38 -21 0 -11 29 -14
155 -14 127 0 155 3 155 14 0 9 -15 17 -40 21 -22 4 -49 14 -60 23 -20 16 -20
26 -18 299 l3 281 264 -329 c146 -181 271 -329 278 -329 10 0 13 71 13 364 0
243 4 374 11 395 12 35 41 51 90 51 22 0 29 5 29 20 0 19 -7 20 -155 20 -148
0 -155 -1 -155 -20 0 -16 7 -20 34 -20 22 0 45 -9 61 -22 l26 -23 -3 -245 -3
-245 -230 287 -230 288 -112 0 c-106 0 -113 -1 -113 -20z"/>
<path d="M9540 3440 c0 -16 7 -20 31 -20 32 0 69 -15 81 -34 4 -6 8 -163 8
-348 l0 -338 -22 -14 c-13 -8 -40 -18 -60 -21 -23 -4 -38 -13 -38 -21 0 -11
35 -14 190 -14 162 0 190 2 190 15 0 10 -14 17 -40 21 -26 4 -48 16 -60 32
-19 23 -20 42 -20 349 l0 324 25 24 c16 17 35 25 60 25 28 0 35 4 35 20 0 19
-7 20 -190 20 -183 0 -190 -1 -190 -20z"/>
<path d="M10030 3440 c0 -14 7 -20 21 -20 47 0 81 -60 249 -438 90 -205 170
-372 176 -372 7 0 38 66 69 148 107 275 236 588 255 620 13 21 31 35 50 39 21
4 30 11 30 24 0 18 -10 19 -130 19 -123 0 -130 -1 -130 -20 0 -15 7 -20 28
-20 40 0 66 -31 58 -67 -11 -43 -190 -493 -197 -493 -9 0 -229 499 -229 520 0
23 28 40 64 40 19 0 26 5 26 20 0 19 -7 20 -170 20 -163 0 -170 -1 -170 -20z"/>
<path d="M10980 3440 c0 -16 7 -20 35 -20 22 0 43 -8 55 -20 19 -19 20 -33 20
-360 l0 -340 -22 -14 c-13 -8 -38 -17 -55 -21 -19 -4 -33 -13 -33 -21 0 -12
50 -14 342 -12 l342 3 27 108 27 107 -22 0 c-15 0 -29 -15 -48 -50 -17 -29
-45 -61 -70 -77 -41 -27 -44 -28 -192 -28 l-151 0 -3 168 -2 167 112 0 c141 0
176 -14 198 -77 8 -24 20 -43 27 -43 10 0 13 35 13 150 0 119 -3 150 -13 150
-8 0 -21 -18 -29 -39 -25 -63 -53 -74 -189 -79 l-119 -4 0 145 c0 134 2 147
19 157 33 17 247 13 287 -6 34 -17 74 -69 74 -98 0 -9 8 -16 20 -16 19 0 20 7
20 95 l0 95 -335 0 c-328 0 -335 0 -335 -20z"/>
<path d="M11810 3447 c0 -7 20 -18 45 -25 35 -9 48 -19 56 -39 6 -17 9 -146 7
-349 -3 -359 -3 -355 -74 -368 -20 -4 -34 -13 -34 -21 0 -13 29 -15 175 -15
142 0 175 3 175 14 0 8 -19 18 -45 25 -60 15 -65 30 -65 202 l0 139 33 0 c30
0 41 -12 177 -190 l145 -189 108 -1 c96 0 108 2 105 17 -2 9 -16 20 -31 24
-16 4 -35 14 -44 21 -16 13 -253 303 -266 325 -5 8 10 17 45 27 102 30 158
100 158 197 0 105 -59 173 -177 204 -77 20 -493 22 -493 2z m433 -72 c45 -21
76 -62 84 -109 19 -116 -54 -182 -219 -202 l-58 -6 0 159 c0 114 4 163 13 172
17 18 132 9 180 -14z"/>
<path d="M13470 3440 c0 -16 7 -20 35 -20 25 0 44 -8 60 -25 l25 -24 0 -330
c0 -321 -1 -331 -21 -349 -11 -11 -38 -22 -60 -26 -25 -4 -39 -12 -39 -21 0
-13 28 -15 190 -15 155 0 190 3 190 14 0 8 -15 17 -37 21 -21 3 -48 13 -60 21
l-23 14 0 338 c0 185 4 342 8 348 12 19 49 34 81 34 24 0 31 4 31 20 0 19 -7
20 -190 20 -183 0 -190 -1 -190 -20z"/>
<path d="M13960 3440 c0 -15 7 -20 28 -20 15 0 38 -7 50 -16 l22 -15 0 -343
c0 -381 3 -366 -67 -381 -19 -4 -33 -13 -33 -21 0 -21 406 -20 505 1 141 30
235 96 287 203 32 65 33 70 33 197 0 122 -2 134 -28 187 -55 113 -164 187
-313 213 -50 9 -153 14 -281 15 -196 0 -203 -1 -203 -20z m451 -60 c153 -48
232 -164 232 -340 0 -204 -114 -327 -323 -346 -56 -6 -74 -4 -95 10 l-25 16 0
324 c0 179 3 331 6 340 9 24 125 21 205 -4z"/>
<path d="M15830 3441 c0 -17 6 -21 30 -21 19 0 40 -9 55 -25 l25 -24 0 -326
c0 -205 -4 -333 -10 -346 -6 -11 -30 -24 -55 -30 -26 -7 -45 -17 -45 -25 0
-21 403 -20 507 2 146 30 246 103 300 219 26 55 28 69 28 175 -1 94 -5 125
-23 171 -42 106 -126 178 -257 220 -62 19 -97 22 -312 27 -242 4 -243 4 -243
-17z m466 -63 c160 -52 254 -217 225 -397 -28 -174 -135 -270 -321 -287 -56
-6 -74 -4 -95 10 l-25 16 0 334 c0 183 3 336 7 339 15 16 145 6 209 -15z"/>
<path d="M17276 3429 c-3 -17 -6 -67 -6 -110 0 -71 2 -79 19 -79 14 0 22 12
30 46 7 26 25 59 41 75 27 27 33 29 114 29 l86 0 0 -344 0 -345 -26 -20 c-15
-12 -40 -21 -55 -21 -22 0 -29 -5 -29 -20 0 -19 7 -20 180 -20 167 0 180 1
180 18 0 13 -12 21 -42 28 -30 6 -46 16 -55 34 -9 18 -13 112 -13 358 l0 332
80 0 c43 0 90 -5 104 -12 28 -12 66 -80 66 -116 0 -16 6 -22 23 -22 22 0 22 2
19 110 l-3 110 -353 0 -353 0 -7 -31z"/>
<path d="M18100 3440 c0 -15 7 -20 29 -20 16 0 39 -9 52 -19 l24 -19 3 -329
c3 -318 2 -330 -17 -355 -12 -15 -36 -29 -56 -32 -21 -4 -35 -13 -35 -21 0
-13 49 -15 338 -15 l337 0 23 88 c12 48 25 97 28 110 5 18 2 22 -19 22 -17 0
-27 -7 -31 -22 -9 -37 -67 -99 -110 -119 -33 -15 -66 -19 -171 -19 -89 0 -135
4 -143 12 -8 8 -12 61 -12 171 l0 159 124 -4 c143 -3 174 -17 190 -81 7 -26
15 -37 28 -37 17 0 18 12 18 150 0 140 -1 150 -19 150 -13 0 -20 -9 -24 -30
-14 -67 -70 -90 -219 -90 l-98 0 0 138 c0 178 -6 172 156 172 146 0 178 -12
213 -82 15 -32 29 -48 42 -48 17 0 19 8 19 95 l0 95 -335 0 c-328 0 -335 0
-335 -20z"/>
<path d="M19810 3440 c0 -15 7 -20 29 -20 17 0 42 -11 60 -26 l31 -26 0 -329
c0 -372 2 -360 -79 -374 -25 -4 -41 -12 -41 -21 0 -11 28 -14 155 -14 127 0
155 3 155 14 0 9 -15 17 -40 21 -22 4 -49 14 -60 23 -20 16 -20 26 -18 298 l3
281 268 -329 c147 -180 275 -328 283 -328 12 0 14 55 14 384 l0 385 26 20 c15
12 41 21 60 21 27 0 34 4 34 20 0 19 -7 20 -150 20 -143 0 -150 -1 -150 -20 0
-15 7 -20 24 -20 41 0 76 -18 86 -46 6 -16 9 -122 8 -262 l-3 -235 -234 291
-235 292 -113 0 c-106 0 -113 -1 -113 -20z"/>
<path d="M20790 3440 c0 -16 7 -20 34 -20 19 0 44 -9 57 -19 l24 -19 3 -327
c3 -373 4 -367 -73 -386 -26 -7 -45 -17 -45 -25 0 -11 35 -14 190 -14 155 0
190 3 190 14 0 8 -15 17 -37 21 -21 3 -48 13 -60 21 l-23 14 0 345 0 344 22
15 c12 9 39 16 60 16 31 0 38 4 38 20 0 19 -7 20 -190 20 -183 0 -190 -1 -190
-20z"/>
<path d="M12464 2169 c-74 -25 -146 -78 -196 -144 -109 -144 -109 -396 0 -540
111 -147 341 -199 516 -117 69 32 120 69 144 104 11 15 11 22 2 34 -11 12 -19
9 -56 -21 -75 -62 -147 -89 -239 -89 -64 -1 -89 4 -127 22 -152 75 -215 297
-147 517 17 55 31 78 72 119 57 56 104 76 182 76 78 0 125 -20 181 -75 35 -35
56 -67 68 -103 13 -39 23 -52 37 -52 18 0 19 9 19 145 0 134 -1 145 -18 145
-11 0 -27 -9 -37 -20 -22 -25 -34 -25 -113 0 -86 27 -206 26 -288 -1z"/>
<path d="M13325 2177 c-164 -54 -262 -185 -280 -374 -29 -292 198 -517 477
-473 100 15 167 50 231 120 160 172 149 489 -23 644 -74 67 -139 90 -260 93
-67 2 -119 -2 -145 -10z m201 -52 c208 -61 263 -496 86 -673 -65 -65 -164 -88
-240 -56 -111 46 -176 181 -175 364 1 203 71 331 200 366 63 17 71 17 129 -1z"/>
<path d="M14488 2180 c-94 -28 -150 -104 -150 -203 0 -115 35 -156 237 -281
139 -85 179 -152 139 -232 -69 -139 -261 -98 -353 75 -23 44 -38 61 -52 61
-15 0 -19 -5 -15 -17 3 -10 15 -73 27 -140 19 -102 25 -123 40 -123 10 0 21 9
24 20 8 25 34 25 106 3 68 -21 182 -21 231 1 94 41 148 119 148 216 0 109 -32
149 -210 261 -177 111 -200 134 -200 202 0 75 80 121 170 97 55 -15 129 -89
154 -152 12 -34 23 -48 37 -48 10 0 19 6 19 13 0 16 -19 184 -26 225 -6 36
-28 43 -44 12 -13 -25 -29 -25 -108 0 -66 21 -127 24 -174 10z"/>
<path d="M15395 2158 c-7 -18 -75 -179 -150 -358 -75 -179 -147 -342 -161
-364 -14 -21 -39 -43 -55 -49 -17 -7 -29 -19 -29 -29 0 -16 12 -18 130 -18
123 0 130 1 130 20 0 15 -7 20 -29 20 -19 0 -35 8 -45 21 -12 18 -12 27 0 69
8 26 23 68 34 94 l21 46 158 0 158 0 38 -89 c20 -49 35 -97 33 -107 -2 -13
-17 -22 -46 -28 -30 -7 -42 -15 -42 -28 0 -17 13 -18 165 -18 158 0 165 1 165
20 0 13 -7 20 -20 20 -12 0 -31 10 -43 23 -12 12 -99 194 -192 405 -180 407
-189 422 -220 350z m73 -345 l60 -143 -134 0 -133 0 64 157 c36 86 65 159 66
162 0 3 4 -3 9 -14 4 -11 35 -84 68 -162z"/>
<path d="M17826 1902 c-173 -417 -208 -489 -251 -509 -21 -10 -35 -24 -35 -35
0 -16 11 -18 130 -18 123 0 130 1 130 20 0 15 -7 20 -28 20 -16 0 -37 9 -46
19 -20 22 -13 60 29 155 l25 56 158 0 159 0 38 -94 c21 -52 35 -101 32 -110
-4 -9 -24 -18 -47 -22 -30 -5 -40 -11 -40 -25 0 -18 10 -19 165 -19 158 0 165
1 165 20 0 14 -7 20 -22 20 -12 0 -31 9 -42 19 -12 11 -97 193 -191 405 -142
322 -173 386 -190 386 -17 0 -39 -47 -139 -288z m177 -77 l64 -150 -130 -3
c-71 -1 -131 -1 -133 1 -3 3 109 278 122 299 3 5 8 8 9 6 2 -2 33 -71 68 -153z"/>
<path d="M20321 2168 c-35 -88 -283 -672 -299 -705 -22 -43 -65 -83 -88 -83
-8 0 -14 -9 -14 -20 0 -19 7 -20 130 -20 123 0 130 1 130 20 0 14 -7 20 -21
20 -67 0 -75 44 -28 156 l31 74 158 0 157 0 33 -72 c18 -40 33 -89 34 -108 1
-33 -1 -35 -41 -44 -31 -7 -43 -15 -43 -28 0 -17 13 -18 165 -18 158 0 165 1
165 20 0 12 -7 20 -18 20 -10 0 -27 6 -38 14 -12 9 -88 168 -194 405 -139 315
-176 391 -192 391 -10 0 -22 -10 -27 -22z m73 -365 l55 -133 -135 0 c-75 0
-134 4 -132 9 2 4 32 77 68 160 63 147 65 152 77 124 6 -15 36 -88 67 -160z"/>
<path d="M22567 2178 c-103 -257 -305 -722 -325 -747 -14 -19 -38 -39 -54 -45
-16 -6 -28 -18 -28 -28 0 -16 12 -18 130 -18 123 0 130 1 130 20 0 14 -7 20
-21 20 -34 0 -59 19 -59 46 0 13 14 61 31 105 l31 79 160 -2 161 -3 34 -78
c18 -44 33 -90 33 -103 0 -25 -25 -44 -59 -44 -14 0 -21 -6 -21 -20 0 -19 7
-20 160 -20 153 0 160 1 160 20 0 13 -7 20 -18 20 -10 0 -29 11 -42 25 -13 14
-99 195 -191 403 -131 294 -172 378 -187 380 -11 2 -22 -3 -25 -10z m57 -342
c36 -85 66 -157 66 -160 0 -3 -59 -6 -131 -6 -101 0 -130 3 -127 13 3 14 122
307 124 307 1 0 31 -69 68 -154z"/>
<path d="M7610 2161 c0 -13 10 -20 36 -24 77 -13 74 1 74 -377 0 -378 3 -364
-74 -377 -26 -4 -36 -11 -36 -24 0 -18 11 -19 175 -19 168 0 175 1 175 20 0
16 -7 20 -30 20 -19 0 -40 9 -55 25 -24 24 -25 28 -25 180 l0 157 124 -4 c115
-3 126 -5 150 -27 14 -13 29 -39 32 -58 3 -18 12 -33 20 -33 11 0 14 29 14
155 0 131 -2 155 -15 155 -8 0 -15 -9 -15 -20 0 -32 -20 -66 -50 -84 -20 -11
-63 -18 -139 -23 l-111 -6 0 151 c0 180 -17 165 183 160 152 -3 168 -10 189
-80 8 -26 17 -38 30 -38 16 0 18 9 18 95 l0 95 -335 0 c-321 0 -335 -1 -335
-19z"/>
<path d="M8330 2160 c0 -16 7 -20 35 -20 22 0 43 -8 55 -20 19 -19 20 -33 20
-360 l0 -340 -22 -14 c-13 -8 -38 -17 -55 -21 -18 -4 -33 -13 -33 -21 0 -11
57 -14 340 -16 l341 -3 9 35 c47 182 47 180 21 180 -12 0 -29 -17 -45 -45 -42
-71 -83 -96 -174 -106 -109 -11 -200 -11 -223 1 -18 10 -19 23 -19 175 l0 165
98 0 c147 0 199 -23 216 -92 3 -16 13 -28 21 -28 13 0 15 24 15 150 0 126 -2
150 -15 150 -8 0 -18 -12 -21 -27 -17 -70 -68 -93 -209 -93 l-105 0 0 140 c0
178 -4 174 169 169 137 -5 162 -15 196 -87 12 -25 27 -41 38 -42 15 0 17 11
17 95 l0 95 -335 0 c-328 0 -335 0 -335 -20z"/>
<path d="M9130 2161 c0 -16 6 -21 29 -21 15 0 40 -9 55 -21 l26 -20 0 -338 c0
-379 3 -365 -74 -378 -28 -4 -36 -10 -36 -26 0 -20 4 -20 233 -14 257 7 324
18 419 69 71 38 121 92 157 167 24 51 26 67 26 181 0 114 -2 130 -26 181 -36
75 -86 129 -157 167 -98 52 -162 63 -419 69 -233 6 -233 6 -233 -16z m445 -63
c101 -26 179 -89 221 -180 26 -56 29 -74 29 -163 0 -87 -4 -107 -26 -155 -53
-113 -135 -171 -268 -190 -81 -11 -128 -5 -141 21 -12 21 -13 648 -2 665 4 6
14 14 22 17 18 7 111 -1 165 -15z"/>
<path d="M10060 2160 c0 -16 7 -20 30 -20 19 0 40 -9 55 -25 l25 -24 0 -324
c0 -313 -1 -325 -21 -351 -11 -14 -29 -26 -39 -26 -29 0 -50 -11 -50 -26 0
-11 60 -14 339 -16 l338 -3 24 95 c13 52 25 101 27 108 2 7 -7 12 -22 12 -14
0 -26 -4 -26 -8 0 -5 -14 -29 -31 -55 -48 -73 -90 -88 -254 -90 -111 -2 -137
1 -145 13 -5 8 -10 86 -10 174 l0 158 124 -3 c143 -5 174 -18 190 -82 7 -26
15 -37 28 -37 17 0 18 12 18 150 0 143 -1 150 -20 150 -14 0 -20 -7 -20 -23 0
-12 -7 -33 -16 -46 -28 -39 -73 -51 -194 -51 l-110 0 0 133 c0 180 -7 172 162
172 121 0 136 -2 164 -22 17 -12 39 -40 49 -62 12 -27 25 -41 37 -41 16 0 18
9 18 95 l0 95 -335 0 c-328 0 -335 0 -335 -20z"/>
<path d="M10850 2161 c0 -14 10 -20 40 -25 72 -11 71 -10 68 -386 l-3 -332
-24 -19 c-13 -10 -36 -19 -52 -19 -22 0 -29 -5 -29 -20 0 -19 7 -20 175 -20
168 0 175 1 175 20 0 15 -7 20 -29 20 -16 0 -39 9 -52 19 -23 18 -24 25 -27
170 l-3 151 35 0 c33 0 40 -7 181 -190 l146 -190 104 0 c98 0 105 1 105 20 0
11 -7 20 -15 20 -38 0 -78 38 -198 186 -70 88 -127 163 -128 168 0 6 17 15 38
21 62 19 100 43 130 82 25 33 28 44 28 118 0 75 -2 85 -29 119 -61 81 -168
105 -458 106 -167 0 -178 -1 -178 -19z m439 -74 c99 -50 111 -193 22 -256 -34
-24 -130 -51 -183 -51 l-38 0 0 160 c0 157 1 161 23 170 33 15 126 3 176 -23z"/>
<path d="M11720 2160 c0 -15 7 -20 25 -20 33 0 81 -25 89 -45 3 -9 6 -163 6
-341 0 -310 -1 -325 -20 -344 -11 -11 -38 -23 -60 -26 -30 -5 -40 -11 -40 -25
0 -18 11 -19 190 -19 183 0 190 1 190 20 0 16 -7 20 -31 20 -32 0 -69 15 -81
34 -4 6 -8 162 -8 347 0 379 -3 365 79 376 31 4 41 10 41 24 0 18 -11 19 -190
19 -183 0 -190 -1 -190 -20z"/>
<path d="M15920 2160 c0 -14 7 -20 24 -20 12 0 38 -10 57 -23 l34 -23 3 -335
c2 -321 1 -336 -17 -353 -11 -10 -38 -20 -60 -23 -31 -4 -41 -10 -41 -24 0
-18 10 -19 155 -19 148 0 155 1 155 20 0 16 -7 20 -34 20 -19 0 -45 9 -60 21
l-26 20 0 286 0 285 270 -336 c149 -185 275 -336 280 -336 6 0 10 156 12 385
3 376 3 385 24 405 12 12 40 24 63 27 31 4 41 10 41 24 0 18 -10 19 -155 19
-145 0 -155 -1 -155 -19 0 -14 10 -20 41 -24 80 -11 80 -10 77 -288 l-3 -245
-230 287 -230 288 -112 0 c-107 1 -113 0 -113 -19z"/>
<path d="M16860 2065 c0 -106 2 -115 19 -115 14 0 20 10 25 38 8 50 40 100 72
112 14 6 59 10 100 10 l74 0 0 -340 0 -341 -25 -24 c-15 -16 -36 -25 -55 -25
-23 0 -30 -4 -30 -20 0 -19 7 -20 180 -20 173 0 180 1 180 20 0 15 -7 20 -29
20 -15 0 -40 9 -55 21 l-26 20 0 345 0 344 74 0 c41 0 86 -4 100 -10 32 -12
64 -62 72 -112 5 -28 11 -38 25 -38 17 0 19 9 19 99 0 55 -3 106 -6 115 -5 14
-47 16 -360 16 l-354 0 0 -115z"/>
<path d="M18790 2160 c0 -15 7 -20 25 -20 38 0 73 -20 85 -49 7 -19 10 -130 8
-350 -3 -362 1 -345 -80 -358 -28 -4 -38 -10 -38 -24 0 -18 10 -19 150 -19
143 0 150 1 150 20 0 16 -7 20 -35 20 -25 0 -44 8 -60 25 l-25 24 0 283 0 283
43 -90 c24 -49 92 -197 152 -327 61 -131 115 -238 121 -238 6 0 80 154 165
342 l154 343 3 -275 c1 -151 0 -290 -3 -307 -6 -35 -44 -63 -85 -63 -13 0 -20
-7 -20 -20 0 -19 7 -20 175 -20 168 0 175 1 175 20 0 15 -7 20 -28 20 -15 0
-38 7 -50 16 l-22 15 0 342 c0 188 4 347 8 353 11 16 48 34 71 34 14 0 21 6
21 20 0 20 -5 20 -126 18 l-127 -3 -129 -295 c-71 -162 -133 -298 -137 -303
-4 -4 -70 130 -147 298 l-139 305 -127 0 c-121 0 -128 -1 -128 -20z"/>
<path d="M20860 2160 c0 -14 7 -20 24 -20 13 0 35 -9 50 -21 l26 -20 0 -318
c0 -206 -4 -329 -11 -350 -12 -35 -35 -51 -73 -51 -19 0 -26 -5 -26 -20 0 -19
7 -20 175 -20 168 0 175 1 175 20 0 16 -7 20 -30 20 -19 0 -40 9 -55 25 -24
23 -25 28 -25 170 l0 145 33 0 c31 0 41 -11 177 -189 l145 -190 108 0 c101 -1
107 0 107 19 0 11 -7 20 -15 20 -9 0 -29 7 -45 15 -32 16 -293 332 -285 345 3
4 20 11 38 14 58 11 122 59 147 110 30 64 25 147 -13 204 -56 85 -163 111
-454 112 -166 0 -173 -1 -173 -20z m415 -65 c65 -26 105 -106 91 -176 -15 -75
-91 -125 -211 -136 l-65 -6 0 162 c0 158 0 162 23 171 26 11 120 3 162 -15z"/>
<path d="M21710 2160 c0 -14 7 -20 24 -20 41 0 83 -20 95 -46 7 -17 11 -126
11 -339 0 -311 0 -314 -23 -340 -15 -18 -36 -28 -65 -32 -32 -4 -42 -10 -42
-24 0 -18 11 -19 195 -19 184 0 195 1 195 19 0 15 -10 19 -46 24 -81 9 -79 -2
-82 340 -4 369 -2 384 43 403 19 8 46 14 60 14 18 0 25 5 25 20 0 19 -7 20
-195 20 -188 0 -195 -1 -195 -20z"/>
<path d="M2949 1237 c-31 -23 -39 -56 -39 -151 l0 -96 -1235 0 c-1341 0 -1287
2 -1300 -53 -3 -12 -6 -65 -8 -117 l-2 -95 -142 -3 -143 -3 0 -294 0 -295 40
0 c33 0 40 -3 40 -20 0 -19 7 -20 169 -20 221 0 215 -4 219 149 l4 111 1243 0
c684 0 1251 3 1260 6 32 13 45 59 45 164 l0 100 188 -2 187 -3 3 -85 c2 -70 7
-89 24 -107 12 -13 26 -23 31 -23 5 0 22 -11 39 -25 l30 -25 1209 0 1209 0 0
-89 c0 -85 1 -91 26 -110 15 -12 33 -21 40 -21 8 0 14 -4 14 -10 0 -5 13 -16
30 -25 22 -12 65 -15 190 -15 l160 0 0 290 0 290 -25 0 c-21 0 -25 5 -25 30
l0 30 -115 0 -115 0 0 75 c0 73 -1 77 -35 111 -19 19 -35 39 -35 44 0 5 -13
16 -30 25 -25 13 -174 15 -1238 15 l-1210 0 -4 78 -3 77 -51 53 -50 52 -289 0
c-212 -1 -294 -4 -306 -13z m601 -47 c7 -12 9 -103 8 -252 l-3 -233 -297 -3
-298 -2 0 243 c0 176 3 246 12 255 9 9 87 12 290 12 266 0 278 -1 288 -20z
m2531 -250 c18 -10 19 -24 19 -255 l0 -245 -1281 2 c-1181 3 -1283 4 -1292 20
-8 12 -1 37 31 106 l42 90 0 146 0 146 1231 0 c829 0 1237 -3 1250 -10z
m-3161 -142 l1 -143 38 -90 c44 -100 42 -120 -12 -130 -17 -3 -594 -4 -1282
-3 l-1250 3 -3 239 c-2 167 1 243 9 252 10 12 212 14 1255 14 l1244 0 0 -142z
m-2550 -255 c0 -137 0 -138 40 -237 30 -75 37 -102 29 -113 -9 -10 -48 -13
-160 -13 l-149 0 0 250 0 250 120 0 120 0 0 -137z m6020 -113 l0 -251 -157 3
c-188 4 -185 0 -123 126 l40 83 0 145 0 144 120 0 120 0 0 -250z m-3390 203
c0 -22 -2 -25 -10 -13 -13 20 -13 40 0 40 6 0 10 -12 10 -27z m540 15 c0 -7
-5 -20 -10 -28 -8 -12 -10 -9 -10 13 0 15 5 27 10 27 6 0 10 -6 10 -12z
m-3090 -285 c0 -22 -2 -25 -10 -13 -13 20 -13 40 0 40 6 0 10 -12 10 -27z
m5639 20 c0 -5 -4 -17 -9 -28 -8 -18 -9 -17 -9 8 -1 15 4 27 9 27 6 0 10 -3 9
-7z"/>
<path d="M3063 1089 c15 -9 17 -26 17 -124 0 -106 -1 -115 -22 -129 -21 -15
-19 -16 42 -16 61 0 63 1 42 16 -21 14 -22 23 -22 130 0 110 1 115 23 124 17
7 8 9 -38 9 -45 0 -56 -2 -42 -10z"/>
<path d="M3198 1084 c20 -14 22 -23 22 -124 0 -101 -2 -110 -22 -124 -22 -15
-20 -16 30 -16 l52 0 -20 20 c-17 17 -20 33 -20 110 0 50 2 90 4 90 3 0 44
-49 92 -110 48 -60 91 -110 96 -110 4 0 8 58 8 130 0 112 2 130 18 139 13 8 5
10 -33 10 -27 -1 -42 -3 -33 -6 21 -5 30 -49 26 -128 l-3 -60 -79 98 c-77 94
-81 97 -120 97 -39 0 -40 0 -18 -16z"/>
<path d="M4135 828 c-29 -16 -35 -28 -35 -70 0 -36 4 -40 60 -75 62 -39 82
-71 63 -102 -6 -9 -24 -17 -41 -19 -25 -3 -36 3 -59 32 -15 20 -30 36 -33 36
-3 0 -4 -18 -2 -40 2 -23 9 -40 16 -38 6 1 30 -2 54 -6 54 -10 96 6 112 43 17
42 -2 75 -65 117 -58 39 -77 73 -55 99 7 8 20 15 30 15 23 0 70 -38 70 -56 0
-8 5 -14 11 -14 7 0 9 9 5 23 -3 12 -6 33 -6 46 0 19 -3 21 -14 12 -11 -9 -20
-9 -35 -2 -25 14 -51 13 -76 -1z"/>
<path d="M4424 826 c-43 -19 -76 -70 -82 -126 -15 -154 177 -220 258 -88 27
44 27 120 0 163 -36 58 -110 79 -176 51z m97 -16 c64 -35 65 -205 1 -239 -85
-45 -161 73 -121 188 17 49 76 74 120 51z"/>
<path d="M4688 820 c21 -9 22 -14 22 -122 0 -115 -4 -131 -30 -141 -8 -3 40
-6 106 -6 118 -1 122 0 128 22 12 45 7 52 -19 24 -23 -24 -33 -27 -85 -27
l-60 0 0 120 c0 116 1 121 23 130 16 6 6 9 -43 9 -49 0 -59 -3 -42 -9z"/>
<path d="M4970 823 c26 -10 30 -26 30 -130 0 -90 -3 -106 -20 -123 l-20 -20
114 0 114 0 7 31 c9 40 2 46 -18 15 -20 -30 -92 -45 -126 -26 -19 10 -22 18
-19 63 3 49 5 52 32 55 41 5 74 -5 79 -26 3 -9 5 4 6 31 l1 47 -21 -21 c-14
-14 -30 -19 -57 -17 -36 3 -37 4 -40 46 -2 24 2 50 9 58 23 28 129 11 129 -21
0 -8 5 -15 10 -15 6 0 10 14 10 30 l0 30 -117 -1 c-65 0 -111 -3 -103 -6z"/>
<path d="M5258 820 c21 -9 22 -14 22 -130 0 -116 -1 -121 -22 -130 -18 -7 -11
-9 31 -9 49 -1 53 0 36 13 -16 11 -20 30 -23 112 -3 66 -1 96 6 89 5 -5 30
-53 53 -105 24 -53 48 -97 53 -98 5 -2 28 41 53 95 24 54 48 102 53 107 7 7
10 -22 10 -80 0 -90 -8 -116 -40 -127 -8 -3 14 -6 50 -6 49 0 61 2 48 10 -16
9 -18 26 -18 129 0 103 2 120 18 130 13 8 8 10 -27 8 l-45 -3 -41 -93 c-23
-52 -45 -93 -51 -92 -5 1 -28 43 -51 93 l-42 92 -48 2 c-38 2 -43 0 -25 -7z"/>
<path d="M920 792 c20 -21 45 -54 57 -74 l20 -34 -49 -67 -48 -67 37 0 c33 0
35 1 18 14 -17 12 -16 15 18 60 l35 47 20 -28 c42 -61 45 -72 20 -83 -18 -7
-8 -9 41 -9 l65 -1 -22 20 c-12 11 -39 47 -61 79 l-40 58 37 51 c20 28 48 56
62 61 21 8 16 10 -29 10 -47 1 -52 -1 -37 -12 16 -12 15 -15 -11 -49 -15 -21
-31 -37 -35 -38 -8 0 -48 64 -48 78 0 6 8 13 18 15 9 3 -10 5 -44 6 l-61 1 37
-38z"/>
<path d="M2591 809 c-47 -123 -95 -236 -103 -246 -8 -10 -3 -13 23 -13 23 0
30 3 20 9 -9 6 -11 16 -6 32 12 40 26 49 75 49 40 0 48 -3 58 -25 16 -36 15
-52 -5 -64 -14 -8 -4 -10 40 -11 55 0 56 1 39 18 -9 9 -39 71 -66 137 -27 66
-52 124 -57 129 -5 5 -12 -1 -18 -15z m42 -151 c-7 -13 -73 -9 -73 4 0 7 8 32
17 57 l17 45 22 -50 c12 -27 20 -52 17 -56z"/>
<path d="M654 804 c13 -12 16 -38 16 -120 0 -91 -3 -107 -20 -124 l-20 -20
115 0 c85 0 115 3 115 13 0 6 3 23 6 37 l6 25 -23 -26 c-26 -29 -67 -41 -111
-32 -27 5 -28 8 -28 64 l0 59 34 0 c44 0 66 -9 66 -26 0 -8 5 -14 10 -14 6 0
10 24 9 53 0 50 -1 51 -16 30 -12 -18 -25 -23 -59 -23 l-44 0 0 55 0 55 45 0
c37 0 51 -5 70 -26 l25 -27 0 32 0 31 -106 0 c-96 0 -104 -1 -90 -16z"/>
<path d="M1298 804 c20 -14 22 -23 22 -113 0 -84 3 -102 20 -124 38 -48 138
-45 169 5 9 14 16 62 19 123 2 55 9 106 14 113 8 9 0 12 -33 12 -35 -1 -40 -3
-26 -11 14 -8 17 -25 17 -113 0 -90 -2 -105 -20 -121 -29 -26 -79 -24 -102 4
-26 33 -27 215 0 230 13 8 3 10 -43 11 -57 0 -58 -1 -37 -16z"/>
<path d="M1604 804 c12 -12 16 -37 16 -109 0 -52 -4 -105 -10 -119 -9 -25 -8
-26 22 -26 28 0 30 1 15 13 -15 10 -17 27 -15 107 l3 95 45 -102 c25 -57 49
-103 54 -104 6 0 31 48 58 108 l47 108 1 -107 c0 -92 -3 -108 -17 -117 -14 -8
-4 -10 40 -11 l57 0 -20 20 c-17 17 -20 33 -20 124 0 84 3 108 16 121 16 15
14 16 -21 13 -38 -3 -38 -3 -79 -100 -23 -54 -43 -98 -46 -98 -3 0 -25 45 -49
100 -43 99 -44 100 -78 100 -31 0 -33 -1 -19 -16z"/>
<path d="M1963 807 c15 -11 17 -28 15 -127 -3 -111 -4 -115 -28 -127 -22 -11
-12 -13 76 -13 92 0 102 2 122 23 30 32 29 80 -3 105 -24 19 -24 20 -5 37 26
23 26 69 0 95 -17 17 -33 20 -107 20 -72 0 -84 -2 -70 -13z m115 -8 c61 -21
43 -99 -23 -99 l-35 0 0 55 c0 60 4 63 58 44z m23 -129 c14 -8 19 -21 19 -50
0 -44 -18 -60 -69 -60 l-31 0 0 60 0 60 31 0 c17 0 39 -5 50 -10z"/>
<path d="M2212 813 c25 -6 30 -37 26 -157 l-3 -106 40 0 c32 1 37 3 23 11 -22
12 -26 109 -5 109 6 0 32 -30 56 -65 43 -63 46 -65 85 -64 32 0 36 2 21 9 -19
7 -105 109 -105 123 0 4 7 7 15 7 24 0 55 37 55 65 0 14 -11 37 -25 50 -22 23
-31 25 -112 24 -48 -1 -80 -3 -71 -6z m146 -19 c26 -18 29 -56 6 -78 -18 -19
-59 -30 -73 -21 -12 7 -15 97 -4 108 11 12 48 7 71 -9z"/>
</g>
</svg>
